<svg width="24" height="23" viewBox="0 0 24 23" fill="none" xmlns="http://www.w3.org/2000/svg">
    <path d="M22.9228 0.63269L12.8535 8.08327L14.726 3.69243L22.9228 0.63269Z" fill="#E17726"/>
    <path d="M0.56756 0.641479L8.74249 3.69297L10.5205 8.14137L0.56756 0.641479ZM18.8706 16.478L23.3211 16.5627L21.7657 21.8465L16.3351 20.3514L18.8706 16.478ZM4.59613 16.478L7.12218 20.3514L1.70074 21.8466L0.154785 16.5627L4.59613 16.478Z"
          fill="#E27625"/>
    <path d="M10.2788 7.00829L10.4607 12.8826L5.01831 12.635L6.56638 10.2995L6.58599 10.277L10.2788 7.00829ZM13.1317 6.94275L16.8809 10.2772L16.9003 10.2996L18.4484 12.6351L13.0072 12.8826L13.1317 6.94275ZM7.28165 16.4951L10.2533 18.8105L6.80132 20.4771L7.28165 16.4951ZM16.1858 16.4947L16.6561 20.4771L13.2138 18.8103L16.1858 16.4947Z"
          fill="#E27625"/>
    <path d="M13.2896 18.5922L16.7828 20.2836L13.5335 21.8278L13.5672 20.8072L13.2896 18.5922ZM10.176 18.5929L9.90932 20.7905L9.93123 21.8266L6.67432 20.2836L10.176 18.5929Z"
          fill="#D5BFB2"/>
    <path d="M9.16737 13.6493L10.0802 15.5677L6.97241 14.6573L9.16737 13.6493ZM14.2993 13.6495L16.5046 14.6573L13.3867 15.5674L14.2993 13.6495Z"
          fill="#233447"/>
    <path d="M7.51908 16.4754L7.01674 20.6041L4.32422 16.5657L7.51908 16.4754ZM15.9478 16.4755L19.1428 16.5657L16.4402 20.6043L15.9478 16.4755ZM18.527 12.4015L16.2018 14.7712L14.4091 13.9519L13.5508 15.7563L12.9882 12.6535L18.527 12.4015ZM4.93857 12.4015L10.4784 12.6535L9.9157 15.7563L9.05724 13.9522L7.27405 14.7713L4.93857 12.4015Z"
          fill="#CC6228"/>
    <path d="M4.78198 11.9152L7.41263 14.5846L7.50375 17.2199L4.78198 11.9152ZM18.6875 11.9104L15.9608 17.2246L16.0635 14.5846L18.6875 11.9104ZM10.3499 12.0778L10.4558 12.7442L10.7174 14.4044L10.5492 19.5033L9.75398 15.4072L9.75371 15.3649L10.3499 12.0778ZM13.1156 12.0685L13.7133 15.3649L13.7131 15.4072L12.9158 19.5136L12.7599 14.3741L13.1156 12.0685Z"
          fill="#E27525"/>
    <path d="M16.2971 14.4785L16.2081 16.7682L13.433 18.9303L12.872 18.5339L13.5008 15.2949L16.2971 14.4785ZM7.17896 14.4785L9.96553 15.2949L10.5944 18.5339L10.0334 18.9303L7.25815 16.768L7.17896 14.4785Z"
          fill="#F5841F"/>
    <path d="M6.14331 19.778L9.69374 21.4602L9.67871 20.7418L9.9758 20.481H13.4898L13.7976 20.7409L13.7748 21.4588L17.3028 19.7822L15.5861 21.2008L13.5103 22.6265H9.94729L7.87288 21.1949L6.14331 19.778Z"
          fill="#C0AC9D"/>
    <path d="M13.0354 18.3683L13.5373 18.7229L13.8315 21.07L13.4058 20.7106H10.0622L9.64453 21.0772L9.92906 18.7231L10.4312 18.3683H13.0354Z"
          fill="#161616"/>
    <path d="M22.2579 0.838989L23.4667 4.46505L22.7118 8.13144L23.2493 8.54605L22.5219 9.101L23.0687 9.52321L22.3448 10.1824L22.7892 10.5042L21.6098 11.8816L16.7725 10.4732L16.7306 10.4507L13.2448 7.51021L22.2579 0.838989ZM1.20872 0.838989L10.2219 7.51021L6.73603 10.4507L6.69414 10.4732L1.85689 11.8816L0.677508 10.5042L1.12154 10.1827L0.398108 9.52321L0.943708 9.10146L0.205425 8.54495L0.763217 8.13006L0 4.46523L1.20872 0.838989Z"
          fill="#763E1A"/>
    <path d="M16.5358 10.1651L21.6612 11.6574L23.3263 16.7894H18.9333L15.9065 16.8275L18.1077 12.5368L16.5358 10.1651ZM6.93064 10.1651L5.35846 12.5368L7.56002 16.8275L4.53456 16.7894H0.149414L1.80519 11.6575L6.93064 10.1651ZM14.9768 3.66797L13.5432 7.53988L13.239 12.7704L13.1225 14.4098L13.1133 18.5979H10.3531L10.3441 14.4177L10.2273 12.769L9.92301 7.53988L8.48962 3.66797H14.9768Z"
          fill="#F5841F"/>
</svg>
