<svg width="112" height="71" viewBox="0 0 112 71" fill="none" xmlns="http://www.w3.org/2000/svg">
    <path d="M5.43531 33.6905C5.09917 33.6905 4.82415 33.5835 4.61024 33.3696C4.39633 33.1557 4.28938 32.8807 4.28938 32.5446V2.75024C4.28938 2.4141 4.39633 2.13908 4.61024 1.92517C4.82415 1.71126 5.09917 1.60431 5.43531 1.60431H26.4747C26.8108 1.60431 27.0859 1.71126 27.2998 1.92517C27.5442 2.13908 27.6665 2.4141 27.6665 2.75024V7.37982C27.6665 7.71596 27.5442 7.99099 27.2998 8.2049C27.0859 8.4188 26.8108 8.52576 26.4747 8.52576H12.3568V15.2639H25.5579C25.8941 15.2639 26.1691 15.3861 26.383 15.6306C26.6275 15.8445 26.7497 16.1195 26.7497 16.4556V21.0394C26.7497 21.345 26.6275 21.62 26.383 21.8644C26.1691 22.0784 25.8941 22.1853 25.5579 22.1853H12.3568V32.5446C12.3568 32.8807 12.2498 33.1557 12.0359 33.3696C11.822 33.5835 11.547 33.6905 11.2108 33.6905H5.43531Z"
          fill="white"/>
    <path d="M33.2214 33.6905C32.8852 33.6905 32.6102 33.5835 32.3963 33.3696C32.1824 33.1557 32.0754 32.8807 32.0754 32.5446V2.29187C32.0754 1.95573 32.1824 1.6807 32.3963 1.4668C32.6102 1.25289 32.8852 1.14593 33.2214 1.14593H38.6302C38.9663 1.14593 39.2414 1.25289 39.4553 1.4668C39.6692 1.6807 39.7761 1.95573 39.7761 2.29187V32.5446C39.7761 32.8807 39.6692 33.1557 39.4553 33.3696C39.2414 33.5835 38.9663 33.6905 38.6302 33.6905H33.2214Z"
          fill="white"/>
    <path d="M56.192 34.1489C52.5861 34.1489 49.7137 33.171 47.5746 31.2153C45.4355 29.2595 44.3201 26.3565 44.2284 22.5062C44.2284 22.2923 44.2284 22.0172 44.2284 21.6811C44.2284 21.345 44.2284 21.0852 44.2284 20.9019C44.3201 18.4878 44.8549 16.4251 45.8328 14.7138C46.8412 12.972 48.2163 11.658 49.9581 10.7718C51.7305 9.85504 53.7932 9.39667 56.1462 9.39667C58.8353 9.39667 61.0508 9.93144 62.7926 11.001C64.565 12.0705 65.8943 13.522 66.7805 15.3555C67.6666 17.189 68.1097 19.2823 68.1097 21.6353V22.7354C68.1097 23.0715 67.9875 23.3465 67.743 23.5604C67.5291 23.7743 67.2694 23.8813 66.9638 23.8813H52.2958C52.2958 23.9119 52.2958 23.9577 52.2958 24.0188C52.2958 24.0799 52.2958 24.141 52.2958 24.2022C52.3264 25.0883 52.4792 25.8981 52.7542 26.6315C53.0292 27.3649 53.4571 27.9455 54.0377 28.3734C54.6183 28.8012 55.3211 29.0151 56.1462 29.0151C56.7573 29.0151 57.2616 28.9234 57.6588 28.7401C58.0866 28.5262 58.438 28.297 58.7131 28.0525C58.9881 27.7775 59.202 27.5483 59.3548 27.3649C59.6298 27.0594 59.8437 26.876 59.9965 26.8149C60.1799 26.7232 60.4549 26.6774 60.8216 26.6774H66.5054C66.811 26.6774 67.0555 26.769 67.2388 26.9524C67.4527 27.1052 67.5444 27.3344 67.5139 27.64C67.4833 28.1595 67.2236 28.7859 66.7346 29.5193C66.2457 30.2527 65.5276 30.9861 64.5803 31.7195C63.6635 32.4223 62.5023 33.0029 61.0966 33.4613C59.6909 33.9197 58.0561 34.1489 56.192 34.1489ZM52.2958 19.3434H60.0424V19.2517C60.0424 18.2738 59.8896 17.4182 59.584 16.6848C59.309 15.9514 58.8659 15.3861 58.2547 14.9888C57.6741 14.5916 56.9713 14.3929 56.1462 14.3929C55.3211 14.3929 54.6183 14.5916 54.0377 14.9888C53.4876 15.3861 53.0598 15.9514 52.7542 16.6848C52.4486 17.4182 52.2958 18.2738 52.2958 19.2517V19.3434Z"
          fill="white"/>
    <path d="M70.6387 33.6905C70.3637 33.6905 70.1192 33.5988 69.9053 33.4155C69.7219 33.2016 69.6302 32.9571 69.6302 32.6821C69.6302 32.5904 69.6455 32.4834 69.6761 32.3612C69.7066 32.2084 69.7678 32.0709 69.8594 31.9487L77.5143 21.4519L70.547 11.5969C70.4553 11.4746 70.3789 11.3524 70.3178 11.2302C70.2873 11.1079 70.272 10.9857 70.272 10.8635C70.272 10.5884 70.3789 10.3593 70.5928 10.1759C70.8067 9.962 71.0512 9.85504 71.3262 9.85504H76.9184C77.3157 9.85504 77.606 9.94672 77.7893 10.1301C78.0032 10.3134 78.156 10.4815 78.2477 10.6343L82.5106 16.5473L86.7276 10.6801C86.8498 10.5273 87.0026 10.3593 87.186 10.1759C87.3999 9.962 87.7055 9.85504 88.1027 9.85504H93.4657C93.7407 9.85504 93.9699 9.962 94.1533 10.1759C94.3672 10.3593 94.4741 10.5884 94.4741 10.8635C94.4741 10.9857 94.4589 11.1079 94.4283 11.2302C94.3977 11.3524 94.3366 11.4746 94.2449 11.5969L87.0943 21.4519L94.8408 31.9487C94.9631 32.0709 95.0395 32.1931 95.07 32.3154C95.1006 32.4376 95.1159 32.5598 95.1159 32.6821C95.1159 32.9571 95.0089 33.2016 94.795 33.4155C94.6116 33.5988 94.3672 33.6905 94.0616 33.6905H88.2402C87.8735 33.6905 87.5985 33.6141 87.4152 33.4613C87.2318 33.278 87.079 33.1099 86.9568 32.9571L82.3272 26.6774L77.6518 32.9571C77.5296 33.0793 77.3768 33.2321 77.1934 33.4155C77.0101 33.5988 76.7198 33.6905 76.3225 33.6905H70.6387Z"
          fill="white"/>
    <path d="M99.6946 33.6905C99.3584 33.6905 99.0834 33.5835 98.8695 33.3696C98.6556 33.1557 98.5487 32.8807 98.5487 32.5446V11.001C98.5487 10.6648 98.6556 10.3898 98.8695 10.1759C99.0834 9.962 99.3584 9.85504 99.6946 9.85504H105.103C105.409 9.85504 105.669 9.962 105.883 10.1759C106.127 10.3898 106.249 10.6648 106.249 11.001V32.5446C106.249 32.8807 106.127 33.1557 105.883 33.3696C105.669 33.5835 105.409 33.6905 105.103 33.6905H99.6946ZM99.6487 6.41724C99.3126 6.41724 99.0376 6.31028 98.8237 6.09637C98.6098 5.88247 98.5028 5.60744 98.5028 5.2713V1.19177C98.5028 0.855631 98.6098 0.580606 98.8237 0.366697C99.0376 0.122232 99.3126 0 99.6487 0H105.103C105.44 0 105.715 0.122232 105.928 0.366697C106.173 0.580606 106.295 0.855631 106.295 1.19177V5.2713C106.295 5.60744 106.173 5.88247 105.928 6.09637C105.715 6.31028 105.44 6.41724 105.103 6.41724H99.6487Z"
          fill="white"/>
    <path d="M97.2792 37.5294C100.335 37.5294 102.871 37.9572 104.888 38.8128C106.905 39.699 108.433 40.845 109.472 42.2506C110.511 43.6563 111.061 45.1537 111.122 46.7427C111.122 46.9872 111.03 47.2011 110.847 47.3844C110.633 47.5983 110.389 47.7053 110.114 47.7053H104.338C103.91 47.7053 103.589 47.6289 103.376 47.4761C103.131 47.3233 102.917 47.1247 102.734 46.8802C102.489 46.4218 102.153 45.9787 101.725 45.5509C101.267 45.1231 100.686 44.7717 99.9836 44.4967C99.2502 44.2522 98.3487 44.13 97.2792 44.13C95.5068 44.13 94.1775 44.405 93.2913 44.955C92.3746 45.5051 91.9162 46.2538 91.9162 47.2011C91.9162 47.8734 92.1607 48.4234 92.6496 48.8512C93.1385 49.3096 93.933 49.7069 95.0331 50.043C96.1027 50.4097 97.5389 50.7764 99.3419 51.1431C101.664 51.632 103.651 52.2585 105.301 53.0224C106.92 53.8169 108.158 54.8406 109.014 56.0935C109.869 57.377 110.297 58.966 110.297 60.8606C110.297 62.7247 109.778 64.3901 108.739 65.8569C107.669 67.3237 106.187 68.4696 104.292 69.2947C102.398 70.1198 100.152 70.5323 97.5542 70.5323C95.4457 70.5323 93.5969 70.2573 92.0079 69.7073C90.3883 69.1572 89.0284 68.4238 87.9283 67.5071C86.8282 66.5903 86.0032 65.6124 85.4531 64.5735C84.8725 63.565 84.5669 62.5719 84.5364 61.594C84.5364 61.3496 84.628 61.1204 84.8114 60.9065C84.9947 60.7231 85.2239 60.6314 85.499 60.6314H91.5495C91.8856 60.6314 92.1759 60.6926 92.4204 60.8148C92.6649 60.937 92.8788 61.1357 93.0621 61.4107C93.2455 62.083 93.7344 62.6636 94.5289 63.1525C95.2929 63.672 96.3013 63.9317 97.5542 63.9317C98.8988 63.9317 99.953 63.6873 100.717 63.1983C101.45 62.74 101.817 62.0218 101.817 61.044C101.817 60.4328 101.618 59.898 101.221 59.4397C100.793 58.9813 100.106 58.584 99.1585 58.2479C98.1806 57.9118 96.8513 57.5603 95.1706 57.1936C92.3898 56.6741 90.1438 56.0171 88.4325 55.2226C86.7213 54.4587 85.4684 53.4502 84.6739 52.1974C83.8794 50.975 83.4821 49.4318 83.4821 47.5678C83.4821 45.4898 84.078 43.6869 85.2698 42.159C86.431 40.6616 88.0506 39.5157 90.1285 38.7212C92.2065 37.9266 94.59 37.5294 97.2792 37.5294Z"
          fill="#F39C12"/>
    <path d="M75.9598 37.9878C76.4181 37.9878 76.7543 38.0947 76.9682 38.3086C77.1821 38.5225 77.3502 38.7976 77.4724 39.1337L84.073 60.3564C84.1341 60.5092 84.1646 60.662 84.1646 60.8148C84.1646 61.0898 84.0577 61.319 83.8438 61.5023C83.6299 61.7163 83.3854 61.8232 83.1104 61.8232H78.3891C77.9919 61.8232 77.6863 61.7163 77.4724 61.5023C77.2279 61.2884 77.0751 61.0745 77.014 60.8606L73.1637 47.7511L69.0383 60.8148C68.9772 61.0287 68.8397 61.2426 68.6258 61.4565C68.3813 61.701 68.0452 61.8232 67.6173 61.8232H64.5921C64.1643 61.8232 63.8434 61.701 63.6295 61.4565C63.385 61.2426 63.2322 61.0287 63.1711 60.8148L59.0458 47.7511L55.1954 60.8606C55.1343 61.0745 54.9968 61.2884 54.7829 61.5023C54.5384 61.7163 54.2175 61.8232 53.8203 61.8232H49.099C48.824 61.8232 48.5948 61.7163 48.4115 61.5023C48.1976 61.319 48.0906 61.0898 48.0906 60.8148C48.0906 60.662 48.1059 60.5092 48.1364 60.3564L54.737 39.1337C54.8287 38.7976 54.9968 38.5225 55.2412 38.3086C55.4552 38.0947 55.7913 37.9878 56.2497 37.9878H60.375C60.8028 37.9878 61.139 38.0947 61.3835 38.3086C61.6279 38.5225 61.796 38.7976 61.8877 39.1337L66.1047 51.6931L70.3218 39.1337C70.4134 38.7976 70.5815 38.5225 70.826 38.3086C71.0704 38.0947 71.4066 37.9878 71.8344 37.9878H75.9598Z"
          fill="#F39C12"/>
    <path d="M41.0632 37.5294C42.7133 37.5294 44.1954 37.835 45.5094 38.4461C46.7928 39.0879 47.8165 39.9435 48.5805 41.013C49.3444 42.0826 49.7264 43.2896 49.7264 44.6342C49.7264 46.8038 48.8402 48.5151 47.0679 49.768C45.2955 51.0514 42.9425 51.9223 40.0089 52.3807L34.2792 53.2516V53.8933C34.2792 54.9934 34.5084 55.8338 34.9668 56.4144C35.4252 56.995 36.2655 57.2853 37.4878 57.2853C38.3435 57.2853 39.0463 57.1172 39.5964 56.7811C40.1159 56.445 40.5284 55.9866 40.834 55.406C41.109 55.0087 41.491 54.8101 41.9799 54.8101H47.1137C47.4498 54.8101 47.7096 54.9018 47.8929 55.0851C48.0763 55.299 48.1527 55.5435 48.1221 55.8185C48.1221 56.3686 47.9235 56.995 47.5262 57.6978C47.0984 58.4312 46.4567 59.1494 45.6011 59.8522C44.7454 60.555 43.6453 61.1357 42.3008 61.594C40.9562 62.0524 39.3366 62.2816 37.442 62.2816C35.4557 62.2816 33.7597 62.0524 32.354 61.594C30.9484 61.1357 29.8177 60.4939 28.9621 59.6689C28.0759 58.8438 27.4189 57.8659 26.9911 56.7353C26.5633 55.6352 26.3493 54.4128 26.3493 53.0683V39.1337C26.3493 38.7976 26.4716 38.5225 26.716 38.3086C26.93 38.0947 27.1897 37.9878 27.4953 37.9878H32.8124C33.1486 37.9878 33.4236 38.0947 33.6375 38.3086C33.8514 38.5225 33.9584 38.7976 33.9584 39.1337V40.738C34.3556 40.1574 34.8904 39.6226 35.5627 39.1337C36.235 38.6448 37.0295 38.2628 37.9462 37.9878C38.8324 37.6822 39.8714 37.5294 41.0632 37.5294ZM38.9088 42.7548C38.0226 42.7548 37.2281 42.9382 36.5253 43.3049C35.7919 43.7022 35.2265 44.298 34.8293 45.0926C34.4015 45.9176 34.1875 46.9413 34.1875 48.1637V48.8054L38.0837 48.1178C39.52 47.8734 40.5742 47.4914 41.2465 46.9719C41.8882 46.483 42.2091 45.9024 42.2091 45.2301C42.2091 44.7106 42.0563 44.2675 41.7507 43.9008C41.4451 43.5341 41.0479 43.2438 40.5589 43.0299C40.07 42.8465 39.52 42.7548 38.9088 42.7548Z"
          fill="#F39C12"/>
    <path d="M23.2396 29.2786C23.5757 29.2786 23.8507 29.3856 24.0646 29.5995C24.2786 29.8134 24.3855 30.0884 24.3855 30.4246V60.6773C24.3855 61.0134 24.2786 61.2884 24.0646 61.5023C23.8507 61.7163 23.5757 61.8232 23.2396 61.8232H18.0599C17.7544 61.8232 17.4946 61.7163 17.2807 61.5023C17.0362 61.2884 16.914 61.0134 16.914 60.6773V58.9813C16.2112 59.9286 15.2791 60.7078 14.1179 61.319C12.9567 61.9607 11.5205 62.2816 9.80921 62.2816C8.28129 62.2816 6.93673 62.0371 5.77551 61.5482C4.6143 61.0898 3.62116 60.4023 2.79608 59.4855C1.97101 58.5688 1.32928 57.4534 0.870911 56.1394C0.381979 54.8254 0.106954 53.3127 0.0458368 51.6015C0.0152789 50.9903 0 50.425 0 49.9055C0 49.386 0.0152789 48.8207 0.0458368 48.2095C0.106954 46.5594 0.3667 45.0773 0.825074 43.7633C1.28345 42.4493 1.92517 41.3339 2.75024 40.4171C3.57532 39.5004 4.58374 38.7823 5.77551 38.2628C6.93673 37.7738 8.28129 37.5294 9.80921 37.5294C11.3066 37.5294 12.6206 37.7891 13.7512 38.3086C14.8513 38.8587 15.7681 39.6226 16.5015 40.6005V30.4246C16.5015 30.0884 16.6084 29.8134 16.8223 29.5995C17.0362 29.3856 17.3113 29.2786 17.6474 29.2786H23.2396ZM12.2844 43.6716C11.2454 43.6716 10.4357 43.8855 9.85504 44.3133C9.27444 44.7411 8.8619 45.3217 8.61743 46.0551C8.34241 46.7885 8.17434 47.5983 8.11322 48.4845C8.05211 49.4318 8.05211 50.3791 8.11322 51.3264C8.17434 52.2126 8.34241 53.0224 8.61743 53.7558C8.8619 54.4892 9.27444 55.0698 9.85504 55.4977C10.4357 55.9255 11.2454 56.1394 12.2844 56.1394C13.2929 56.1394 14.1026 55.9102 14.7138 55.4518C15.325 55.024 15.7681 54.4587 16.0431 53.7558C16.3181 53.053 16.4709 52.289 16.5015 51.464C16.532 50.8834 16.5473 50.318 16.5473 49.768C16.5473 49.2179 16.532 48.6373 16.5015 48.0261C16.4709 47.2622 16.3028 46.5441 15.9973 45.8718C15.6917 45.2301 15.2333 44.6953 14.6221 44.2675C14.011 43.8702 13.2317 43.6716 12.2844 43.6716Z"
          fill="#F39C12"/>
</svg>
